<?xml version="1.0" encoding="UTF-8"?>
<svg id="Layer_1" data-name="Layer 1" xmlns="http://www.w3.org/2000/svg" viewBox="0 0 396.85 396.85">
  <defs>
    <style>
      .cls-1 {
        fill: #fff;
      }
    </style>
  </defs>
  <path class="cls-1" d="m305.13,267.81c-6.6-8.3-16.8-13.5-28.2-13.5h-121l.2-17.9-.2-128.7c0-10.4-4.4-20.3-12.3-27-.2-.2-.5-.4-.7-.6-6.8-7-14.7-10-23.3-10s-16.5,3-22.6,8c-8.3,6.6-13.5,16.8-13.5,28.2v116c0,8.2,1.5,16.5,4.7,24.1.8,2,1.6,3.7,2.4,4.9.4.7.9,1.3,1.4,2,4.1,5.6,9.8,10.1,16.3,12.6,2.8,1.1,5.6,1.6,8.4,1.9,4.5.4,13.5.1,13.5.1h12.2v22.1l.6,1.9-.6-1.9c0,10.4,4.4,20.3,12.1,27.2,0,0,.1.1.2.1,11.8,10.4,40.9,9.4,40.9,9.4h81.5c10,0,19-4.1,25.6-10.6.9-.9,1.8-1.9,2.6-2.9,5-6.2,8-14.1,8-22.6s-3.2-16.6-8.2-22.8Zm-179.4-13.6c-8.2,0-17.2-1.3-22.8-7.4-1-1.1-1.9-2.7-2.7-4.5-2.2-4.8-3.2-10.1-3.2-15.4v-120c0-12.5,10.2-22.6,22.6-22.6,0,0,22.7.5,22.7,22.9v147.1h-16.6v-.1Zm168.7,52.2c-4.1,4.1-9.8,7.1-16,7.1h-79.5s-23.3,1.1-33.8-5.5c-.3-.2-.6-.4-.9-.7-5.5-4.1-8.7-10.6-8.7-17.5l.2-22.1h122.7c12.5,0,22.7,10.2,22.7,22.6,0,6.3-2.6,12-6.7,16.1Z"/>
</svg>