<?xml version="1.0" encoding="UTF-8"?>
<svg id="Layer_1" data-name="Layer 1" xmlns="http://www.w3.org/2000/svg" viewBox="0 0 888.5 329.23">
  <defs>
    <style>
      .cls-1 {
        fill: #24282b;
      }
    </style>
  </defs>
  <path class="cls-1" d="m782.5,234.01c-6.6-8.3-16.8-13.5-28.2-13.5h-121l.2-17.9-.2-128.7c0-10.4-4.4-20.3-12.3-27-.2-.2-.5-.4-.7-.6-6.8-7-14.7-10-23.3-10s-16.5,3-22.6,8c-8.3,6.6-13.5,16.8-13.5,28.2v116c0,8.2,1.5,16.5,4.7,24.1.8,2,1.6,3.7,2.4,4.9.4.7.9,1.3,1.4,2,4.1,5.6,9.8,10.1,16.3,12.6,2.8,1.1,5.6,1.6,8.4,1.9,4.5.4,13.5.1,13.5.1h12.2v22.1l.6,1.9-.6-1.9c0,10.4,4.4,20.3,12.1,27.2,0,0,.1.1.2.1,11.8,10.4,40.9,9.4,40.9,9.4h81.5c10,0,19-4.1,25.6-10.6.9-.9,1.8-1.9,2.6-2.9,5-6.2,8-14.1,8-22.6s-3.2-16.6-8.2-22.8Zm-179.4-13.6c-8.2,0-17.2-1.3-22.8-7.4-1-1.1-1.9-2.7-2.7-4.5-2.2-4.8-3.2-10.1-3.2-15.4v-120c0-12.5,10.2-22.6,22.6-22.6,0,0,22.7.5,22.7,22.9v147.1h-16.6v-.1Zm168.7,52.2c-4.1,4.1-9.8,7.1-16,7.1h-79.5s-23.3,1.1-33.8-5.5c-.3-.2-.6-.4-.9-.7-5.5-4.1-8.7-10.6-8.7-17.5l.2-22.1h122.7c12.5,0,22.7,10.2,22.7,22.6,0,6.3-2.6,12-6.7,16.1Z"/>
  <g>
    <path class="cls-1" d="m145.5,273.41h-29v-62.1c0-6.2-3.1-9.3-9.3-9.3s-9.2,3.1-9.2,9.3v69.2c0,7.6,3.6,11.5,10.6,11.5h36.8c6.2,0,9.3-3.1,9.3-9.4s-3-9.2-9.2-9.2h0Z"/>
    <path class="cls-1" d="m167.9,225.61c-5.9,0-8.8,3-8.8,8.9v48.4c0,6,3,9,8.9,9s9-3,9-9v-48.4c0-5.9-3-8.9-9.1-8.9h0Z"/>
    <path class="cls-1" d="m167.7,198.11c-5.7,0-10.3,4.5-10.3,10.2s4.6,10.3,10.3,10.3c6,0,10.4-4.4,10.4-10.3s-4.4-10.2-10.4-10.2Z"/>
    <path class="cls-1" d="m220.8,224.71c-7.1,0-12,3.6-16.1,8.4,0-3.7-3-8.1-9-8.1s-8.7,4.4-8.7,9.3v48.7c0,5.9,2.9,8.9,8.7,8.9s9-3,9-8.9v-32.1c0-6.9,4.6-10.3,9.1-10.3,4.2,0,8.6,3.4,8.6,10.3v32.1c0,5.9,3,8.9,8.9,8.9s9-3,9-8.9v-35.4c.1-16.9-10.4-22.9-19.5-22.9h0Z"/>
    <path class="cls-1" d="m298.8,241.01c2.6-2,3.8-3.6,3.8-6.6,0-4.9-4.3-9.2-9.2-9.2-2.3,0-4.2.8-5.9,2.2l-22.6,19.1v-38.8c0-6-3-9-8.9-9s-8.7,3-8.7,9v75.4c0,5.9,2.9,8.9,8.7,8.9s8.9-3,8.9-8.9v-14.8c.5-.7,6.8-5.6,7.3-6.2l14.5,25.5c1.8,2.6,5.3,4.6,8.6,4.6,6.1,0,8.5-4.1,8.5-9,0-6.7-2.4-3.3-17.5-31.6l12.5-10.6h0Z"/>
    <path class="cls-1" d="m339.4,224.71c-5.3,0-10.8.9-16,3.1-3.7,1.5-5.9,3.9-5.9,7.2,0,5.9,4.1,7.3,8.5,7.3s8-1.5,12.8-1.5c6.4,0,14.1,4.1,14.1,10.9v5.7c-4.1-3-10.2-4.7-16.5-4.7-14.7,0-23.4,10.7-23.4,21.2,0,9.6,7.4,18.6,20.7,18.6,6.4,0,13.2-2.6,18.8-8.4v2.2c.3,4.9,5.4,6.2,7.2,6.2,5.7,0,9-4.2,9-8.8v-34.4c0-17.6-14.6-24.6-29.3-24.6h0Zm.3,52.6c-4.3,0-8.7-1.8-8.7-5.5s4.9-5.4,9.8-5.4c4.6,0,9.7,1.8,9.7,4.8-.1,4-5.6,6.1-10.8,6.1h0Z"/>
    <path class="cls-1" d="m407.5,226.11h-5v-4.5c0-5.9-3-8.8-9-8.8s-8.8,2.9-8.8,8.8v4.5c-4.8.7-8.1,2.2-8.1,7.3s3.3,6.9,8.1,7.3v27.6c0,15.3,3.8,24.5,20.3,24.5,6.3,0,9.6-3,9.6-8.6,0-5.9-3.3-8.7-9.6-8.7-2.3,0-2.4-2.3-2.4-7.1v-27.4h5.2c6.1,0,9-1.5,9-7.4s-3.2-7.5-9.3-7.5h0Z"/>
    <path class="cls-1" d="m434,225.61c-5.9,0-8.8,3-8.8,8.9v48.4c0,6,3,9,8.9,9s9-3,9-9v-48.4c0-5.9-3-8.9-9.1-8.9Z"/>
    <path class="cls-1" d="m433.8,198.11c-5.7,0-10.3,4.5-10.3,10.2s4.6,10.3,10.3,10.3c6,0,10.4-4.4,10.4-10.3s-4.5-10.2-10.4-10.2Z"/>
    <path class="cls-1" d="m504.7,241.01c2.6-2,3.8-3.6,3.8-6.6,0-4.9-4.3-9.2-9.2-9.2-2.3,0-4.2.8-5.9,2.2l-22.6,19.1v-38.8c0-6-3-9-8.9-9s-8.7,3-8.7,9v75.4c0,5.9,2.9,8.9,8.7,8.9s8.9-3,8.9-8.9v-14.8c.5-.7,6.8-5.6,7.3-6.2l14.5,25.5c1.8,2.6,5.3,4.6,8.5,4.6,6.1,0,8.5-4.1,8.5-9,0-6.7-2.4-3.3-17.5-31.6l12.6-10.6h0Z"/>
    <path class="cls-1" d="m136.3,104.61h25.8c1.9,0,2.8-.9,2.8-2.8s-.9-2.8-2.7-2.8h-14.8c-2,0-3-1-3-3v-7.3c0-2,.9-3,2.8-3h9.4c2,0,3-.9,3-2.8s-1-2.8-3-2.8h-9.4c-5.7,0-8.5,2.8-8.5,8.5v7.3c0,1,.1,2,.4,3h-2.9c-1.9,0-2.8.9-2.8,2.8.1,2,1,3,2.9,2.9h0Z"/>
    <path class="cls-1" d="m221.8,65.21c1.3.7,2.7,1.1,4.2,1.1s2.8-.4,4.1-1.1c1.4-.8,2.5-1.8,3.2-3.1.7-1.4,1.1-2.8,1.1-4.3s-.4-2.8-1.1-4.2c-.8-1.4-1.9-2.5-3.2-3.2-1.4-.7-2.8-1.1-4.1-1.1-1.4,0-2.8.4-4.2,1.1-1.3.7-2.4,1.8-3.2,3.2-.7,1.4-1.1,2.8-1.1,4.2s.4,2.9,1.1,4.3c.8,1.3,1.9,2.3,3.2,3.1Z"/>
    <path class="cls-1" d="m237.5,72.21c-5.7,0-8.6,2.8-8.6,8.4v48.7h-8.7c-.3-.1-.6-.1-1-.1l-21-.1V58.31c0-5.7-2.8-8.5-8.5-8.5s-8.6,2.8-8.6,8.4v70.8h-54.8c-6,0-9-2.8-8.9-8.3v-8.1c-.1-5.8-3-8.7-8.5-8.7s-8.6,3-8.5,8.9v7.6c0,17.1,8.6,25.7,25.9,25.7h83c.3.1.7.2,1,.2h27.2c5.7,0,8.5-2.9,8.5-8.6v-57c0-5.7-2.8-8.5-8.5-8.5h0Z"/>
    <path class="cls-1" d="m243.3,65.21c1.3.7,2.7,1.1,4.2,1.1s2.8-.4,4.1-1.1c1.4-.8,2.5-1.8,3.2-3.1.7-1.4,1.1-2.8,1.1-4.3s-.4-2.8-1.1-4.2c-.8-1.4-1.9-2.5-3.2-3.2-1.4-.7-2.8-1.1-4.1-1.1-1.4,0-2.8.4-4.2,1.1-1.3.7-2.4,1.8-3.2,3.2-.7,1.4-1.1,2.8-1.1,4.2s.4,2.9,1.1,4.3c.8,1.3,1.9,2.3,3.2,3.1Z"/>
    <path class="cls-1" d="m396.5,65.31c1.4.8,2.8,1.2,4.3,1.2s2.8-.4,4.2-1.2c1.3-.7,2.3-1.7,3-3,.8-1.4,1.2-2.8,1.2-4.3s-.4-2.8-1.2-4.2c-.7-1.4-1.7-2.5-3.1-3.2s-2.8-1.1-4.1-1.1c-1.5,0-2.9.4-4.3,1.1-1.3.7-2.3,1.8-3.1,3.2-.7,1.4-1.1,2.8-1.1,4.2s.4,2.9,1.1,4.3c.8,1.3,1.8,2.3,3.1,3h0Z"/>
    <path class="cls-1" d="m461.1,167.51c1.4.7,2.8,1.1,4.2,1.1s2.9-.4,4.3-1.1c1.3-.8,2.3-1.9,3-3.2.8-1.4,1.2-2.8,1.2-4.2s-.4-2.9-1.2-4.3c-.7-1.4-1.8-2.4-3.2-3.1-1.4-.7-2.8-1.1-4.1-1.1-1.5,0-2.8.4-4.2,1.1-1.3.7-2.4,1.7-3.2,3.1-.7,1.4-1.1,2.8-1.1,4.3s.4,2.8,1.1,4.2c.8,1.3,1.9,2.4,3.2,3.2h0Z"/>
    <path class="cls-1" d="m447.9,152.71c-1.4-.7-2.8-1.1-4.1-1.1-1.5,0-2.8.4-4.1,1.1-1.4.7-2.5,1.7-3.3,3.1-.7,1.4-1.1,2.8-1.1,4.3s.4,2.8,1.1,4.2c.8,1.3,1.9,2.4,3.2,3.2,1.4.7,2.8,1.1,4.2,1.1s2.9-.4,4.3-1.1c1.3-.8,2.3-1.9,3-3.2.8-1.4,1.2-2.8,1.2-4.2s-.4-2.9-1.2-4.3c-.7-1.4-1.8-2.4-3.2-3.1h0Z"/>
    <path class="cls-1" d="m504.3,49.71c-5.7,0-8.6,2.8-8.6,8.4v70.9h-18.7c-.2,0-.4.1-.5.1h-12.8l.1-48.4c-.1-5.8-3-8.7-8.9-8.7s-8.4,2.8-8.4,8.5v48.6h-23.3c-.4,0-.7.1-1,.1h-12.4l.1-48.4c-.1-5.8-3-8.7-8.9-8.7s-8.4,2.8-8.4,8.5v48.7h-38.5v-30.8c0-17.5-8.6-26.3-25.7-26.3h-11.2l16.8-21.2c3.9-4.4,3.6-8.4-.6-12.1-4.3-3.8-8.4-3.6-12.2.9l-26.5,33.5c-2,2.3-2.8,4.6-2.6,6.8l-.1.8c0,5.6,2.9,8.4,8.6,8.4l27.8.2c5.8,0,8.7,2.9,8.7,8.8v31h-43.4c-.4-.1-.7-.2-1.2-.2h-10.5c-6,0-9.1-2.8-9.1-8.3v-62.2c-.1-5.8-2.9-8.8-8.5-8.9-5.7,0-8.5,3.1-8.5,9.1v61.7c0,17.1,8.6,25.7,25.9,25.7h.6c.4.1.8.2,1.2.2h109.1c5.5,0,8.4-2.8,8.8-8.5-.1,5.5,2.8,8.3,8.4,8.5h22c.4,0,.8-.1,1.2-.2h13.4c5.5,0,8.4-2.8,8.8-8.5-.1,5.5,2.8,8.3,8.4,8.5h40.5c5.7,0,8.5-2.9,8.5-8.6V58.41c.1-5.8-2.7-8.7-8.4-8.7h0Z"/>
  </g>
</svg>