<svg xmlns="http://www.w3.org/2000/svg" width="239.549" height="100.61" viewBox="0 0 239.549 100.61">
  <g id="_387468" data-name="387468" transform="translate(-0.157 -0.079)">
    <path id="Path_745" data-name="Path 745" d="M358.1,71.56l-5.824-48.55A26.046,26.046,0,0,0,326.433.079H270.809A26.047,26.047,0,0,0,244.965,23.01l-5.818,48.55a26.031,26.031,0,0,0,25.845,29.128h67.265A26.03,26.03,0,0,0,358.1,71.56ZM342.148,83.5a13.558,13.558,0,0,1-10.267,4.617H265.369A13.727,13.727,0,0,1,251.74,72.751l5.752-48.005a13.738,13.738,0,0,1,13.628-12.092h55a13.737,13.737,0,0,1,13.628,12.092l5.758,48.005A13.585,13.585,0,0,1,342.148,83.5Z" transform="translate(-118.579)" fill="#024957"/>
    <path id="Path_746" data-name="Path 746" d="M356.578,109.652a6.275,6.275,0,0,0-8.682-1.828c-16.748,10.922-33.046,10.921-49.826,0a6.272,6.272,0,1,0-6.845,10.513c10.486,6.826,21.175,10.286,31.772,10.286s21.28-3.462,31.751-10.289a6.276,6.276,0,0,0,1.83-8.68Z" transform="translate(-143.115 -52.995)" fill="#024957"/>
    <path id="Path_747" data-name="Path 747" d="M117.036,44.77l-5.95,2.05a29.066,29.066,0,0,1,1.449,6.849c0,1.9-1.2,3.05-3.5,3.05-2.35,0-3.749-.551-3.749-3.65V47.719h-6.3v5.349c0,3.1-1.4,3.65-3.9,3.65-2.45,0-3.849-.551-3.849-3.65V47.719h-6.35v5.3c0,3.15-1.7,3.7-5.35,3.7-3.749,0-5.05-.75-5.05-4.85V28.922h-6.65v23.3c0,3.8-1.3,4.5-5.048,4.5h0c-2.951,0-4.7-.6-4.7-4.349V35.17H51.838v3.553c-11.85,2.446-16.1,7.4-16.1,13.6,0,5.9,3.9,9.7,9.6,9.7,4.253,0,6.4-2.151,7.351-5.051.85,5.15,3.845,8.147,9.69,8.15l.009,0c4.45,0,6.949-2,8-5.05,1.3,3.4,4.25,5.05,8.749,5.05,4.149,0,6.849-1.5,7.9-4.6,1.05,3.15,3.55,4.6,7.1,4.6s6-1.5,7-4.65c1.05,3.15,3.6,4.65,7.7,4.65,6.2,0,10-4.051,10-11.4A26.369,26.369,0,0,0,117.036,44.77Zm-65.2,7.4c-1,.8-2.9,1.4-5.7,1.4-2.551,0-5.1-.7-5.1-2.4,0-1.853,2.648-3.7,10.8-5.051v6.049Z" transform="translate(-17.669 -14.322)" fill="#024957"/>
    <path id="Path_748" data-name="Path 748" d="M70.731,31.266a3.546,3.546,0,1,0-3.74-3.541A3.56,3.56,0,0,0,70.731,31.266Z" transform="translate(-33.187 -11.97)" fill="#024957"/>
    <path id="Path_749" data-name="Path 749" d="M54.124,31.266a3.546,3.546,0,1,0-3.74-3.541A3.56,3.56,0,0,0,54.124,31.266Z" transform="translate(-24.94 -11.97)" fill="#024957"/>
    <path id="Path_750" data-name="Path 750" d="M.157,150.244l.984-5.346a15.837,15.837,0,0,0,8.21,2.608c2.481,0,3.935-.812,3.935-2.181,0-3.72-12.915-.257-12.915-9.28,0-4.7,3.892-7.783,10.178-7.783a19.442,19.442,0,0,1,8.724,2.1l-1.069,5.217a16.357,16.357,0,0,0-7.313-2.139c-2.351,0-3.805.9-3.805,2.181,0,3.892,12.915.557,12.915,8.98,0,4.619-4.4,7.868-10.905,7.868A18.635,18.635,0,0,1,.157,150.244Z" transform="translate(0 -63.651)" fill="#024957"/>
    <path id="Path_751" data-name="Path 751" d="M63.738,129.117h6.756V151.91H63.738v-3.763a9.072,9.072,0,0,1-7.825,4.32c-5.731,0-11.248-4.062-11.248-11.974s5.26-12.06,11.248-12.06a9.269,9.269,0,0,1,7.825,3.72Zm0,11.29c-1.24-4.234-3.72-6.372-6.543-6.372-3.036,0-5.389,2.266-5.389,6.372,0,4.062,2.394,6.458,5.431,6.458C60.189,146.863,62.626,144.255,63.738,140.407Z" transform="translate(-22.1 -63.734)" fill="#024957"/>
    <path id="Path_752" data-name="Path 752" d="M105.825,145.414V115.35h6.756v30.064Z" transform="translate(-52.47 -57.239)" fill="#024957"/>
    <path id="Path_753" data-name="Path 753" d="M129.1,145.414V115.35h6.756v30.064Z" transform="translate(-64.027 -57.239)" fill="#024957"/>
    <path id="Path_754" data-name="Path 754" d="M169.236,129.117h6.756V151.91h-6.756v-3.763a9.072,9.072,0,0,1-7.826,4.32c-5.731,0-11.247-4.062-11.247-11.974s5.26-12.06,11.247-12.06a9.269,9.269,0,0,1,7.826,3.72Zm0,11.29c-1.24-4.234-3.72-6.372-6.543-6.372-3.036,0-5.389,2.266-5.389,6.372,0,4.062,2.394,6.458,5.432,6.458C165.686,146.863,168.124,144.255,169.236,140.407Z" transform="translate(-74.486 -63.734)" fill="#024957"/>
  </g>
</svg>
