<svg xmlns="http://www.w3.org/2000/svg" width="111.496" height="134.136" viewBox="0 0 111.496 134.136">
  <g id="tiktok-logo" transform="translate(124.395 40.867)">
    <g id="Group_335" data-name="Group 335" transform="translate(-112.59 -40.867)">
      <path id="Path_755" data-name="Path 755" d="M-97.123,47.329l.318.914C-96.845,48.144-96.964,47.826-97.123,47.329Zm12.9-20.848c.576-4.949,2.524-7.711,6.181-10.554,5.247-3.836,11.785-1.669,11.785-1.669V1.358a27.154,27.154,0,0,1,4.75.3v16.6s-6.539-2.166-11.785,1.669c-3.657,2.842-5.6,5.6-6.181,10.554A15.221,15.221,0,0,0-76.791,39.7c-.556-.3-1.113-.636-1.689-1.014-4.87-3.418-5.764-8.566-5.744-12.2Zm49.766-48.972A22.848,22.848,0,0,1-39.924-33.7h4.531s-.895,7.671,5.684,15.2l.1.1A25.2,25.2,0,0,1-34.459-22.491ZM-12.616-10.8V5.452A56.853,56.853,0,0,1-22.693,4.081,38.182,38.182,0,0,1-32.511.046S-35.174-1.7-35.373-1.822V31.766A33.979,33.979,0,0,1-37.36,42.2a31.4,31.4,0,0,1-5.525,9.123,31.281,31.281,0,0,1-10.136,7.572A29.9,29.9,0,0,1-65.5,61.637a30.932,30.932,0,0,1-16.814-5.028,33.341,33.341,0,0,1-4.809-4.035l.039.039a30.731,30.731,0,0,0,16.814,5.029A29.9,29.9,0,0,0-57.791,54.9a31.281,31.281,0,0,0,10.136-7.572,31.408,31.408,0,0,0,5.525-9.123,33.982,33.982,0,0,0,1.987-10.434V-5.8c.219.12,2.862,1.869,2.862,1.869A38.182,38.182,0,0,0-27.463.107,56.853,56.853,0,0,0-17.386,1.478V-11.261A15.424,15.424,0,0,0-12.616-10.8Z" transform="translate(100.522 37.696)" fill="#ee1d52"/>
      <path id="Path_756" data-name="Path 756" d="M-16.31-11.282V1.458A56.853,56.853,0,0,1-26.387.086,38.182,38.182,0,0,1-36.2-3.948S-38.868-5.7-39.067-5.817V27.772a33.982,33.982,0,0,1-1.987,10.434,31.408,31.408,0,0,1-5.525,9.123A31.281,31.281,0,0,1-56.715,54.9,29.9,29.9,0,0,1-69.2,57.643a30.929,30.929,0,0,1-16.814-5.029l-.039-.039a33.733,33.733,0,0,1-2.365-2.683,32.48,32.48,0,0,1-4.491-8.148v-.02a32.769,32.769,0,0,1-1.769-10.851,29.836,29.836,0,0,1,3.637-13.753,32.449,32.449,0,0,1,7.056-8.626A29.6,29.6,0,0,1-75.6,3.525,28,28,0,0,1-65.181,1.338v12.9s-6.539-2.167-11.785,1.669c-3.657,2.842-5.6,5.6-6.181,10.553-.02,3.637.874,8.785,5.763,12.223.576.378,1.133.715,1.689,1.014a13.405,13.405,0,0,0,3.081,3c4.79,3.16,8.784,3.378,13.912,1.331a13.05,13.05,0,0,0,7.175-7.89,19.025,19.025,0,0,0,.735-6.519V-33.7h11.924A22.681,22.681,0,0,0-33.4-22.491,26.482,26.482,0,0,0-28.553-18.4,25.11,25.11,0,0,0-21.9-13.309,25.359,25.359,0,0,0-16.31-11.282Z" transform="translate(99.446 37.696)"/>
      <g id="Group_334" data-name="Group 334">
        <path id="Path_757" data-name="Path 757" d="M-100.011,94.569l.3.855C-99.752,95.324-99.871,95.026-100.011,94.569Z" transform="translate(101.8 -19.064)" fill="#69c9d0"/>
        <path id="Path_758" data-name="Path 758" d="M-79.37,28.2a29.346,29.346,0,0,0-8.387,4.968,32.162,32.162,0,0,0-7.056,8.646A29.744,29.744,0,0,0-98.45,55.569a33.216,33.216,0,0,0,1.769,10.852v.02a32.834,32.834,0,0,0,4.491,8.149,33.468,33.468,0,0,0,2.365,2.683,33.461,33.461,0,0,1-7.135-6.678,31.833,31.833,0,0,1-4.472-8.109v-.039A32.285,32.285,0,0,1-103.2,51.574a29.836,29.836,0,0,1,3.637-13.753,32.162,32.162,0,0,1,7.056-8.646,29.6,29.6,0,0,1,8.387-4.968A29.382,29.382,0,0,1-78.2,22.458a29.55,29.55,0,0,1,9.262-.139v3.7A28.02,28.02,0,0,0-79.37,28.2Z" transform="translate(103.22 13.039)" fill="#69c9d0"/>
        <path id="Path_759" data-name="Path 759" d="M-23.754-36.872H-35.679v63.32a19.522,19.522,0,0,1-.736,6.519,13.219,13.219,0,0,1-7.175,7.89c-5.127,2.067-9.142,1.828-13.912-1.331a12.92,12.92,0,0,1-3.081-2.982c4.074,2.166,7.711,2.127,12.223.318a13.1,13.1,0,0,0,7.175-7.89,19.026,19.026,0,0,0,.736-6.519V-40.867h16.476a13.94,13.94,0,0,0,.219,4Zm22.537,18.9v3.518A25.361,25.361,0,0,1-6.8-16.481a25.415,25.415,0,0,1-6.658-5.088c.616.4,1.233.756,1.888,1.093C-7.358-18.388-3.243-17.752-1.217-17.971Z" transform="translate(84.353 40.867)" fill="#69c9d0"/>
      </g>
    </g>
    <path id="Path_760" data-name="Path 760" d="M6.425,183a4.342,4.342,0,0,1-.2-1.332v-.039A4.505,4.505,0,0,0,6.425,183Zm9.838-1.371v.039a4.342,4.342,0,0,1-.2,1.332A4.5,4.5,0,0,0,16.263,181.627Z" transform="translate(-57.801 -98.455)" fill="none"/>
    <g id="Group_336" data-name="Group 336" transform="translate(-124.395 68.424)">
      <path id="Path_761" data-name="Path 761" d="M.859,173.62a4.322,4.322,0,0,0,.2,1.332c0,.039.02.06.02.1a5.034,5.034,0,0,0,4.81,3.538v5.088c-2.484,0-4.253.079-6.956-1.51a9.977,9.977,0,0,1-4.79-8.606A10.068,10.068,0,0,1-.632,164.7c2.385-1.252,4.194-1.252,6.539-1.252v5.088a5.021,5.021,0,0,0-5.028,5.028Z" transform="translate(71.942 -158.834)" fill="#69c9d0"/>
      <path id="Path_762" data-name="Path 762" d="M20.294,173.62a4.323,4.323,0,0,1-.2,1.332c0,.039-.02.06-.02.1a5.033,5.033,0,0,1-4.81,3.538v5.088c2.464,0,4.253.079,6.937-1.51a9.952,9.952,0,0,0,4.809-8.606,10.068,10.068,0,0,0-5.227-8.864c-2.385-1.252-4.193-1.252-6.539-1.252v5.088a5.021,5.021,0,0,1,5.028,5.028v.06Z" transform="translate(62.603 -158.834)" fill="#ee1d52"/>
      <path id="Path_763" data-name="Path 763" d="M-124.4,155.174h18.622L-107.5,160.3h-4.869v19.616h-5.982V160.3H-124.4Zm49.369,0V160.3h6.042v19.616h6V160.3h4.87l1.729-5.128ZM-101.718,161a2.892,2.892,0,0,0,2.9-2.9,2.893,2.893,0,0,0-2.9-2.9,2.893,2.893,0,0,0-2.9,2.9A2.892,2.892,0,0,0-101.718,161Zm-2.9,18.9h5.883V163.044h-5.883Zm27.029-19.04h-6.877l-5.922,5.922V155.174h-5.843l-.02,24.7h5.9v-6.439l1.828-1.669,5.724,8.109h6.3l-8.288-11.845Zm56.4,7.194,7.195-7.194h-6.877l-5.922,5.922V155.174h-5.843l-.039,24.724h5.9v-6.439l1.848-1.669L-19.2,179.9h6.3Zm-15.124,1.828A10.188,10.188,0,0,1-46.566,180a10.188,10.188,0,0,1-10.255-10.116,10.188,10.188,0,0,1,10.255-10.116A10.188,10.188,0,0,1-36.311,169.881Zm-5.227,0a5.021,5.021,0,0,0-5.028-5.028,5.021,5.021,0,0,0-5.028,5.028,5.021,5.021,0,0,0,5.028,5.028A5.021,5.021,0,0,0-41.538,169.881Z" transform="translate(124.395 -155.174)"/>
    </g>
  </g>
</svg>
