<svg xmlns="http://www.w3.org/2000/svg" width="16.453" height="20.27" viewBox="0 0 16.453 20.27">
  <path id="Icon_simple-apple" data-name="Icon simple-apple" d="M7.448,19.878a4.539,4.539,0,0,1-1.05-.971,13.02,13.02,0,0,1-.9-1.227A11.872,11.872,0,0,1,4,14.61a11.541,11.541,0,0,1-.627-3.669,6.82,6.82,0,0,1,.846-3.452A4.879,4.879,0,0,1,5.989,5.647a4.727,4.727,0,0,1,2.4-.709,3.958,3.958,0,0,1,.954.127c.245.068.54.177.9.312.464.177.717.287.8.312a1.977,1.977,0,0,0,.675.143,2.02,2.02,0,0,0,.544-.11c.122-.042.355-.118.684-.262.326-.118.584-.219.789-.3a7.044,7.044,0,0,1,.886-.219,4.183,4.183,0,0,1,.969-.042,5.748,5.748,0,0,1,1.638.355A4.417,4.417,0,0,1,19.3,6.913a4.154,4.154,0,0,0-.612.464,5.168,5.168,0,0,0-1.038,1.27,4.3,4.3,0,0,0-.544,2.127,4.356,4.356,0,0,0,.709,2.414,4.5,4.5,0,0,0,1.295,1.3,3.318,3.318,0,0,0,.709.38c-.1.317-.213.625-.342.928a11.977,11.977,0,0,1-1.055,1.95c-.365.532-.652.928-.869,1.19a4.706,4.706,0,0,1-1,.926,2.217,2.217,0,0,1-1.226.368,2.717,2.717,0,0,1-.873-.107c-.245-.08-.486-.171-.723-.273a5.858,5.858,0,0,0-.764-.287,3.815,3.815,0,0,0-.983-.124,3.939,3.939,0,0,0-.979.122,6.084,6.084,0,0,0-.766.274c-.355.148-.587.245-.722.287a3.774,3.774,0,0,1-.836.148,2.321,2.321,0,0,1-1.254-.38ZM13.234,4.3a3.144,3.144,0,0,1-1.665.368A3.385,3.385,0,0,1,11.8,2.944a4.648,4.648,0,0,1,.844-1.418A4.565,4.565,0,0,1,14.016.463,3.914,3.914,0,0,1,15.611,0,3.837,3.837,0,0,1,15.4,1.746a5.012,5.012,0,0,1-.844,1.486,4.258,4.258,0,0,1-1.339,1.064Z" transform="translate(-3.37 0.002)"/>
</svg>
