<svg xmlns="http://www.w3.org/2000/svg" width="18.289" height="15.194" viewBox="0 0 18.289 15.194">
  <g id="Layer_26" data-name="Layer 26" transform="translate(-2.5 -7.49)">
    <path id="Path_594" data-name="Path 594" d="M17.306,9.4H13.277l-2.253-1.8a.462.462,0,0,0-.288-.1H4.18A1.68,1.68,0,0,0,2.5,9.17V22.216a.465.465,0,0,0,.415.465h.05a.468.468,0,0,0,.456-.369l1.9-8.988a.741.741,0,0,1,.744-.576H18.518a.465.465,0,0,0,.465-.465V11.076A1.68,1.68,0,0,0,17.306,9.4Z" fill="#846adc"/>
    <path id="Path_595" data-name="Path 595" d="M20.451,22.085a1.677,1.677,0,0,0-1.317-.635H6.091a1.674,1.674,0,0,0-1.637,1.3l-1.9,8.988a.465.465,0,0,0,.44.573H17.584a1.677,1.677,0,0,0,1.637-1.308l1.55-7.495a1.671,1.671,0,0,0-.319-1.429Z" transform="translate(-0.027 -9.633)" fill="#b3a9eb"/>
  </g>
</svg>
