<svg xmlns="http://www.w3.org/2000/svg" width="23" height="18.186" viewBox="0 0 23 18.186">
  <g id="_7089160_google_meet_icon" data-name="7089160_google_meet_icon" transform="translate(-3 -7)">
    <rect id="Rectangle_260" data-name="Rectangle 260" width="8" height="8" transform="translate(8 20.093) rotate(-90)" fill="#fff"/>
    <path id="Path_628" data-name="Path 628" d="M3,16.535v7.488l2.674.535,2.674-.535V16.535L5.674,16Z" transform="translate(0 -4.186)" fill="#1e88e5"/>
    <path id="Path_629" data-name="Path 629" d="M25.372,23.535v7.488a1.6,1.6,0,0,1-1.6,1.6H12.535L12,29.953l.535-2.674h7.488V23.535L22.7,23Z" transform="translate(-4.186 -7.442)" fill="#4caf50"/>
    <path id="Path_630" data-name="Path 630" d="M25.372,8.6v7.488H20.023V12.349H12.535L12,9.674,12.535,7H23.767A1.6,1.6,0,0,1,25.372,8.6Z" transform="translate(-4.186)" fill="#fbc02d"/>
    <path id="Path_631" data-name="Path 631" d="M8.349,31v5.349H4.6a1.6,1.6,0,0,1-1.6-1.6V31Z" transform="translate(0 -11.163)" fill="#1565c0"/>
    <path id="Path_632" data-name="Path 632" d="M8.349,7v5.349H3Z" fill="#e53935"/>
    <path id="Path_633" data-name="Path 633" d="M32.884,20.07l-.535,4.52L27,20.07l5.349-4.52Z" transform="translate(-11.163 -3.977)" fill="#2e7d32"/>
    <path id="Path_634" data-name="Path 634" d="M41.814,9.643V24.5a.536.536,0,0,1-.872.417L37,21.592v-9.04l3.942-3.327A.536.536,0,0,1,41.814,9.643Z" transform="translate(-15.814 -0.979)" fill="#4caf50"/>
  </g>
</svg>
