<svg xmlns="http://www.w3.org/2000/svg" width="18.235" height="17.645" viewBox="0 0 18.235 17.645">
  <g id="schedule" transform="translate(0 -8.282)">
    <path id="Path_581" data-name="Path 581" d="M23.155,192.668H7.593A1.068,1.068,0,0,1,6.525,191.6V181.459h17.7V191.6A1.068,1.068,0,0,1,23.155,192.668Z" transform="translate(-6.293 -167.009)" fill="#e4e9f4"/>
    <path id="Path_582" data-name="Path 582" d="M22.42,181.824v4.762a5.351,5.351,0,0,1-5.351,5.351H6.525a1.12,1.12,0,0,0,1.126,1.07H23.169a1.07,1.07,0,0,0,1.07-1.07V181.824Z" transform="translate(-6.293 -167.361)" fill="#cdd2df"/>
    <path id="Path_583" data-name="Path 583" d="M24.224,65.279H6.525V62.056a1.068,1.068,0,0,1,1.068-1.068H23.155a1.068,1.068,0,0,1,1.068,1.068v3.222Z" transform="translate(-6.293 -50.829)" fill="#ff6464"/>
    <path id="Path_584" data-name="Path 584" d="M424.941,60.988h-1.788a1.073,1.073,0,0,1,1.073,1.073v3.218h1.788V62.061A1.073,1.073,0,0,0,424.941,60.988Z" transform="translate(-408.082 -50.829)" fill="#ed4545"/>
    <g id="Group_279" data-name="Group 279" transform="translate(1.841 15.941)">
      <path id="Path_585" data-name="Path 585" d="M53.066,224.939H51.947a.245.245,0,0,1-.245-.245v-1.118a.245.245,0,0,1,.245-.245h1.119a.245.245,0,0,1,.245.245v1.118A.245.245,0,0,1,53.066,224.939Z" transform="translate(-51.702 -223.33)" fill="#7a6cf7"/>
      <path id="Path_586" data-name="Path 586" d="M414.478,314.832h-1.118a.245.245,0,0,1-.245-.245v-1.118a.245.245,0,0,1,.245-.245h1.118a.245.245,0,0,1,.245.245v1.118A.245.245,0,0,1,414.478,314.832Z" transform="translate(-400.242 -310.021)" fill="#7a6cf7"/>
      <path id="Path_587" data-name="Path 587" d="M53.066,405.185H51.947a.245.245,0,0,1-.245-.245v-1.118a.245.245,0,0,1,.245-.245h1.119a.245.245,0,0,1,.245.245v1.118A.245.245,0,0,1,53.066,405.185Z" transform="translate(-51.702 -397.156)" fill="#7a6cf7"/>
      <path id="Path_588" data-name="Path 588" d="M143.418,405.185H142.3a.245.245,0,0,1-.245-.245v-1.118a.245.245,0,0,1,.245-.245h1.118a.245.245,0,0,1,.245.245v1.118A.245.245,0,0,1,143.418,405.185Z" transform="translate(-138.836 -397.156)" fill="#7a6cf7"/>
      <path id="Path_589" data-name="Path 589" d="M233.772,405.185h-1.119a.245.245,0,0,1-.245-.245v-1.118a.245.245,0,0,1,.245-.245h1.119a.245.245,0,0,1,.245.245v1.118A.245.245,0,0,1,233.772,405.185Z" transform="translate(-225.972 -397.156)" fill="#7a6cf7"/>
      <path id="Path_590" data-name="Path 590" d="M324.125,405.185h-1.118a.245.245,0,0,1-.245-.245v-1.118a.245.245,0,0,1,.245-.245h1.118a.245.245,0,0,1,.245.245v1.118A.245.245,0,0,1,324.125,405.185Z" transform="translate(-313.107 -397.156)" fill="#7a6cf7"/>
    </g>
    <g id="Group_280" data-name="Group 280" transform="translate(3.415 8.55)">
      <path id="Path_591" data-name="Path 591" d="M96.682,19.137h-.006a.8.8,0,0,1-.8-.8V16.613a.8.8,0,0,1,.8-.8h.006a.8.8,0,0,1,.8.8v1.723A.8.8,0,0,1,96.682,19.137Z" transform="translate(-95.874 -15.812)" fill="#555e6b"/>
      <path id="Path_592" data-name="Path 592" d="M369.749,19.137h-.006a.8.8,0,0,1-.8-.8V16.613a.8.8,0,0,1,.8-.8h.006a.8.8,0,0,1,.8.8v1.723A.8.8,0,0,1,369.749,19.137Z" transform="translate(-359.216 -15.812)" fill="#555e6b"/>
    </g>
    <path id="Path_593" data-name="Path 593" d="M11.263,22.361V23.97a.268.268,0,0,0,.268.268H13.14a.268.268,0,0,0,.268-.268V22.361a.268.268,0,0,0-.268-.268H11.531A.268.268,0,0,0,11.263,22.361Zm.536.268h1.073V23.7H11.8Zm1.691-6.642a.268.268,0,0,0-.379,0l-.948.948-.442-.442a.268.268,0,1,0-.379.379l.632.632a.268.268,0,0,0,.379,0l1.138-1.138A.268.268,0,0,0,13.49,15.987Zm-1.97,4.775a.268.268,0,0,0,.379,0l.436-.436.436.436a.268.268,0,0,0,.379-.379l-.436-.436.436-.436a.268.268,0,0,0-.379-.379l-.436.436-.436-.436a.268.268,0,0,0-.379.379l.436.436-.436.436A.268.268,0,0,0,11.52,20.763Zm6.447,1.062a.268.268,0,0,0,.268-.268V11.232a1.342,1.342,0,0,0-1.341-1.341H15.017V9.355a1.073,1.073,0,0,0-2.1-.307.268.268,0,1,0,.514.153.536.536,0,0,1,1.05.154v1.716a.536.536,0,1,1-1.073,0v-.912a.268.268,0,0,0-.268-.268H5.328V9.355a1.073,1.073,0,1,0-2.145,0v.536H1.341A1.342,1.342,0,0,0,0,11.232V24.586a1.342,1.342,0,0,0,1.341,1.341H16.894a1.342,1.342,0,0,0,1.341-1.341v-1.5a.268.268,0,1,0-.536,0v1.5a.805.805,0,0,1-.8.8H1.341a.805.805,0,0,1-.8-.8V14.718h.882a.268.268,0,0,0,0-.536H.536v-2.95a.805.805,0,0,1,.8-.8H3.182v.644a1.073,1.073,0,0,0,2.145,0v-.644h7.544v.644a1.073,1.073,0,0,0,2.145,0v-.644h1.877a.805.805,0,0,1,.8.8v2.95H2.905a.268.268,0,0,0,0,.536H17.7v6.839A.268.268,0,0,0,17.967,21.825ZM4.791,11.071a.536.536,0,0,1-1.073,0V9.355a.536.536,0,1,1,1.073,0Zm9.947,6.49a.268.268,0,0,0,.379,0l.436-.436.436.436a.268.268,0,1,0,.379-.379l-.436-.436.436-.436a.268.268,0,0,0-.379-.379l-.436.436-.436-.436a.268.268,0,0,0-.379.379l.436.436-.436.436A.268.268,0,0,0,14.738,17.561Zm-.257,1.582v1.609a.268.268,0,0,0,.268.268h1.609a.268.268,0,0,0,.268-.268V19.143a.268.268,0,0,0-.268-.268H14.749A.268.268,0,0,0,14.481,19.143Zm.536.268H16.09v1.073H15.017ZM5.1,22.092a.268.268,0,0,0-.268.268V23.97a.268.268,0,0,0,.268.268H6.7a.268.268,0,0,0,.268-.268V22.361a.268.268,0,0,0-.268-.268ZM6.436,23.7H5.363V22.629H6.436Zm.619-7.714a.268.268,0,0,0-.379,0l-.948.948-.442-.442a.268.268,0,0,0-.379.379l.632.632a.268.268,0,0,0,.379,0l1.138-1.138A.268.268,0,0,0,7.055,15.987ZM1.877,22.092a.268.268,0,0,0-.268.268V23.97a.268.268,0,0,0,.268.268H3.486a.268.268,0,0,0,.268-.268V22.361a.268.268,0,0,0-.268-.268ZM3.218,23.7H2.145V22.629H3.218Zm.619-4.513a.268.268,0,0,0-.379,0l-.948.948-.442-.442a.268.268,0,1,0-.379.379l.632.632a.268.268,0,0,0,.379,0l1.138-1.138A.268.268,0,0,0,3.837,19.189Zm6.436,0a.268.268,0,0,0-.379,0l-.948.948L8.5,19.694a.268.268,0,1,0-.379.379l.632.632a.268.268,0,0,0,.379,0l1.138-1.138A.268.268,0,0,0,10.273,19.189Zm-6.786-1.37a.268.268,0,0,0,.268-.268V15.941a.268.268,0,0,0-.268-.268H1.877a.268.268,0,0,0-.268.268V17.55a.268.268,0,0,0,.268.268H3.486ZM2.145,16.209H3.218v1.073H2.145Zm4.909,2.979a.268.268,0,0,0-.379,0l-.948.948-.442-.442a.268.268,0,1,0-.379.379l.632.632a.268.268,0,0,0,.379,0l1.138-1.138A.268.268,0,0,0,7.055,19.189Zm1.259,2.9a.268.268,0,0,0-.268.268V23.97a.268.268,0,0,0,.268.268H9.922a.268.268,0,0,0,.268-.268V22.361a.268.268,0,0,0-.268-.268ZM9.654,23.7H8.581V22.629H9.654Zm.619-7.714a.268.268,0,0,0-.379,0l-.948.948L8.5,16.493a.268.268,0,0,0-.379.379l.632.632a.268.268,0,0,0,.379,0l1.138-1.138A.268.268,0,0,0,10.273,15.987Z"/>
  </g>
</svg>
