<svg xmlns="http://www.w3.org/2000/svg" viewBox="0 0 640 3"><path d="M0 3V0c5 0 5 2 10 2s5-2 10-2 5 2 10 2 5-2 10-2 5 2 10 2 5-2 10-2 5 2 10 2 5-2 10-2 5 2 10 2 5-2 10-2c5.1 0 5.1 2 10 2 5 0 5-2 10-2h.1c5 0 5 2 9.9 2 5 0 5-2 10-2h.1c5 0 5 2 9.9 2 5 0 5-2 10-2h.1c5 0 5 2 9.9 2 5 0 5-2 10-2h.1c5 0 5 2 9.9 2 5 0 5-2 10-2h.1c5 0 5 2 9.9 2 5 0 5-2 10-2h.1c5 0 5 2 9.9 2 5 0 5-2 10-2h.1c5 0 5 2 9.9 2 5 0 5-2 10-2h.1c5 0 5 2 9.9 2 5 0 5-2 10-2h.1c5 0 5 2 9.9 2 5 0 5-2 10-2h.1c5 0 5 2 9.9 2 5 0 5-2 10-2h.1c5 0 5 2 9.9 2 5 0 5-2 10-2h.1c5 0 5 2 9.9 2 5 0 5-2 10-2h.1c5 0 5 2 9.9 2 5 0 5-2 10-2h.1c5 0 5 2 9.9 2h.1c5 0 5-2 10-2s5 2 10 2 5-2 10-2 5 2 10 2 5-2 10-2 5 2 10 2 5-2 10-2 5 2 10 2 5-2 10-2 5 2 10 2 5-2 10-2 5 2 10 2 5-2 10-2 5 2 10 2 5-2 10-2 5 2 10 2 5-2 10-2 5 2 10 2 5-2 10-2 5 2 10 2 5-2 10-2 5 2 10 2 5-2 10-2 5 2 10 2 5-2 10-2v3H0z"/></svg>